# xmcd
#
# Track frame offsets:
#	150
#	31892
#	61373
#	89719
#	119128
#	149282
#	190101
#	220679
#	248495
#	274290
#	299801
#
# Disc length: 4338 seconds
#
# Revision: 0
# Processed by: cddbd v1.5.2PL0 Copyright (c) Steve Scherf et al.
# Submitted via: audiograbber 1.83.01
#
DISCID=b210f00b
DTITLE=Jo Mils and Jon White - Thinking Out Loud Asia presents Attica (Disk 2)
DYEAR=2008
DGENRE=Minimal, Tech House, Progressive
TTITLE0=Milton Jakson and Sei A -  Glasgow Kiss
TTITLE1=Andy Cato -  Cosmic Force (Francois Dubois Rmx)
TTITLE2=Rob Pearson -  Escape From The Madness Ft. Robert Owens(Timewriter Rmx)
TTITLE3=Cozzy D - Cheese Dreams (Original Extra Mature Mix)
TTITLE4=Three Drives -  Greece 2000(Matt Samuels Rmx)
TTITLE5=Spektre -  Myst
TTITLE6=Rob Mooney - Toothpick
TTITLE7=Juergens -  Love It
TTITLE8=Nick Muir - G Platz (Pig and Dan Rmx)
TTITLE9=Trick and Kubic - Trip (Club Mix)
TTITLE10=Simone Giudici and Place - Freemove (Ursin and Benew Rmx)
EXTD=
EXTT0=
EXTT1=
EXTT2=
EXTT3=
EXTT4=
EXTT5=
EXTT6=
EXTT7=
EXTT8=
EXTT9=
EXTT10=
PLAYORDER=
